<?xml version="1.0" encoding="UTF-8" standalone="no"?>
<!DOCTYPE svg PUBLIC "-//W3C//DTD SVG 1.1//EN"
 "http://www.w3.org/Graphics/SVG/1.1/DTD/svg11.dtd">
<!-- Generated by graphviz version 2.38.0 (20140413.2041)
 -->
<!-- Title: %3 Pages: 1 -->
<svg width="500%" height="500%"
 viewBox="0.00 0.00 1244.00 1070.00" xmlns="http://www.w3.org/2000/svg" xmlns:xlink="http://www.w3.org/1999/xlink">
<g id="graph0" class="graph" transform="scale(1 1) rotate(0) translate(4 1066)">
<title>%3</title>
<polygon fill="white" stroke="none" points="-4,4 -4,-1066 1240,-1066 1240,4 -4,4"/>
<!-- KaTeX -->
<g id="node1" class="node"><title>KaTeX</title>
<polygon fill="lemonchiffon" stroke="black" stroke-width="2" points="57,-576 54,-580 33,-580 30,-576 0,-576 0,-540 57,-540 57,-576"/>
<text text-anchor="start" x="8" y="-554.3" font-family="Times New Roman,serif" font-size="14.00">KaTeX</text>
</g>
<!-- KaTeX\contrib -->
<g id="node2" class="node"><title>KaTeX\contrib</title>
<polygon fill="lemonchiffon" stroke="black" stroke-width="2" points="339.5,-927 336.5,-931 315.5,-931 312.5,-927 283.5,-927 283.5,-891 339.5,-891 339.5,-927"/>
<text text-anchor="start" x="291.5" y="-905.3" font-family="Times New Roman,serif" font-size="14.00">contrib</text>
</g>
<!-- KaTeX&#45;&gt;KaTeX\contrib -->
<g id="edge1" class="edge"><title>KaTeX&#45;&gt;KaTeX\contrib</title>
<path fill="none" stroke="black" d="M44.2121,-576.377C90.7785,-634.544 235.067,-814.776 289.462,-882.721"/>
<polygon fill="black" stroke="black" points="286.952,-885.186 295.933,-890.805 292.416,-880.811 286.952,-885.186"/>
</g>
<!-- KaTeX\dockers -->
<g id="node3" class="node"><title>KaTeX\dockers</title>
<polygon fill="lemonchiffon" stroke="black" stroke-width="2" points="342.5,-738 339.5,-742 318.5,-742 315.5,-738 280.5,-738 280.5,-702 342.5,-702 342.5,-738"/>
<text text-anchor="start" x="288.5" y="-716.3" font-family="Times New Roman,serif" font-size="14.00">dockers</text>
</g>
<!-- KaTeX&#45;&gt;KaTeX\dockers -->
<g id="edge2" class="edge"><title>KaTeX&#45;&gt;KaTeX\dockers</title>
<path fill="none" stroke="black" d="M57.2124,-573.977C107.55,-602.997 214.106,-664.428 271.664,-697.611"/>
<polygon fill="black" stroke="black" points="270.054,-700.722 280.465,-702.684 273.55,-694.658 270.054,-700.722"/>
</g>
<!-- KaTeX\docs -->
<g id="node4" class="node"><title>KaTeX\docs</title>
<polygon fill="lemonchiffon" stroke="black" stroke-width="2" points="338.5,-684 335.5,-688 314.5,-688 311.5,-684 284.5,-684 284.5,-648 338.5,-648 338.5,-684"/>
<text text-anchor="start" x="292.5" y="-662.3" font-family="Times New Roman,serif" font-size="14.00">docs</text>
</g>
<!-- KaTeX&#45;&gt;KaTeX\docs -->
<g id="edge3" class="edge"><title>KaTeX&#45;&gt;KaTeX\docs</title>
<path fill="none" stroke="black" d="M57.2124,-568.651C108.415,-588.33 217.784,-630.365 274.587,-652.197"/>
<polygon fill="black" stroke="black" points="273.636,-655.581 284.226,-655.902 276.147,-649.047 273.636,-655.581"/>
</g>
<!-- KaTeX\flow&#45;typed -->
<g id="node5" class="node"><title>KaTeX\flow&#45;typed</title>
<polygon fill="lemonchiffon" stroke="black" stroke-width="2" points="350,-630 347,-634 326,-634 323,-630 273,-630 273,-594 350,-594 350,-630"/>
<text text-anchor="start" x="281" y="-608.3" font-family="Times New Roman,serif" font-size="14.00">flow&#45;typed</text>
</g>
<!-- KaTeX&#45;&gt;KaTeX\flow&#45;typed -->
<g id="edge4" class="edge"><title>KaTeX&#45;&gt;KaTeX\flow&#45;typed</title>
<path fill="none" stroke="black" d="M57.2124,-563.326C105.118,-572.532 203.94,-591.522 262.989,-602.87"/>
<polygon fill="black" stroke="black" points="262.34,-606.309 272.821,-604.759 263.661,-599.435 262.34,-606.309"/>
</g>
<!-- KaTeX\fonts -->
<g id="node6" class="node"><title>KaTeX\fonts</title>
<polygon fill="lemonchiffon" stroke="black" stroke-width="2" points="338.5,-576 335.5,-580 314.5,-580 311.5,-576 284.5,-576 284.5,-540 338.5,-540 338.5,-576"/>
<text text-anchor="start" x="292.5" y="-554.3" font-family="Times New Roman,serif" font-size="14.00">fonts</text>
</g>
<!-- KaTeX&#45;&gt;KaTeX\fonts -->
<g id="edge5" class="edge"><title>KaTeX&#45;&gt;KaTeX\fonts</title>
<path fill="none" stroke="black" d="M57.2124,-558C108.203,-558 216.879,-558 273.879,-558"/>
<polygon fill="black" stroke="black" points="274.226,-561.5 284.226,-558 274.226,-554.5 274.226,-561.5"/>
</g>
<!-- KaTeX\src -->
<g id="node7" class="node"><title>KaTeX\src</title>
<polygon fill="lemonchiffon" stroke="black" stroke-width="2" points="338.5,-522 335.5,-526 314.5,-526 311.5,-522 284.5,-522 284.5,-486 338.5,-486 338.5,-522"/>
<text text-anchor="start" x="292.5" y="-500.3" font-family="Times New Roman,serif" font-size="14.00">src</text>
</g>
<!-- KaTeX&#45;&gt;KaTeX\src -->
<g id="edge6" class="edge"><title>KaTeX&#45;&gt;KaTeX\src</title>
<path fill="none" stroke="black" d="M57.2124,-552.674C108.309,-542.855 217.331,-521.904 274.233,-510.969"/>
<polygon fill="black" stroke="black" points="275.066,-514.373 284.226,-509.049 273.745,-507.499 275.066,-514.373"/>
</g>
<!-- KaTeX\static -->
<g id="node8" class="node"><title>KaTeX\static</title>
<polygon fill="lemonchiffon" stroke="black" stroke-width="2" points="338.5,-468 335.5,-472 314.5,-472 311.5,-468 284.5,-468 284.5,-432 338.5,-432 338.5,-468"/>
<text text-anchor="start" x="292.5" y="-446.3" font-family="Times New Roman,serif" font-size="14.00">static</text>
</g>
<!-- KaTeX&#45;&gt;KaTeX\static -->
<g id="edge7" class="edge"><title>KaTeX&#45;&gt;KaTeX\static</title>
<path fill="none" stroke="black" d="M57.2124,-547.349C108.415,-527.67 217.784,-485.635 274.587,-463.803"/>
<polygon fill="black" stroke="black" points="276.147,-466.953 284.226,-460.098 273.636,-460.419 276.147,-466.953"/>
</g>
<!-- KaTeX\test -->
<g id="node9" class="node"><title>KaTeX\test</title>
<polygon fill="lemonchiffon" stroke="black" stroke-width="2" points="338.5,-387 335.5,-391 314.5,-391 311.5,-387 284.5,-387 284.5,-351 338.5,-351 338.5,-387"/>
<text text-anchor="start" x="292.5" y="-365.3" font-family="Times New Roman,serif" font-size="14.00">test</text>
</g>
<!-- KaTeX&#45;&gt;KaTeX\test -->
<g id="edge8" class="edge"><title>KaTeX&#45;&gt;KaTeX\test</title>
<path fill="none" stroke="black" d="M56.4435,-539.878C107.687,-505.411 219.126,-430.458 275.841,-392.311"/>
<polygon fill="black" stroke="black" points="278.112,-395.002 284.456,-386.517 274.205,-389.194 278.112,-395.002"/>
</g>
<!-- KaTeX\website -->
<g id="node10" class="node"><title>KaTeX\website</title>
<polygon fill="lemonchiffon" stroke="black" stroke-width="2" points="341,-252 338,-256 317,-256 314,-252 282,-252 282,-216 341,-216 341,-252"/>
<text text-anchor="start" x="290" y="-230.3" font-family="Times New Roman,serif" font-size="14.00">website</text>
</g>
<!-- KaTeX&#45;&gt;KaTeX\website -->
<g id="edge9" class="edge"><title>KaTeX&#45;&gt;KaTeX\website</title>
<path fill="none" stroke="black" d="M45.4129,-539.652C92.8434,-484.964 233.352,-322.953 288.207,-259.704"/>
<polygon fill="black" stroke="black" points="290.854,-261.995 294.762,-252.147 285.566,-257.408 290.854,-261.995"/>
</g>
<!-- KaTeX\contrib\auto&#45;render -->
<g id="node11" class="node"><title>KaTeX\contrib\auto&#45;render</title>
<polygon fill="lemonchiffon" stroke="black" stroke-width="2" points="668.5,-1062 665.5,-1066 644.5,-1066 641.5,-1062 588.5,-1062 588.5,-1026 668.5,-1026 668.5,-1062"/>
<text text-anchor="start" x="596.5" y="-1040.3" font-family="Times New Roman,serif" font-size="14.00">auto&#45;render</text>
</g>
<!-- KaTeX\contrib&#45;&gt;KaTeX\contrib\auto&#45;render -->
<g id="edge10" class="edge"><title>KaTeX\contrib&#45;&gt;KaTeX\contrib\auto&#45;render</title>
<path fill="none" stroke="black" d="M339.629,-920.627C392.898,-943.456 511.807,-994.417 578.943,-1023.19"/>
<polygon fill="black" stroke="black" points="577.888,-1026.55 588.458,-1027.27 580.646,-1020.11 577.888,-1026.55"/>
</g>
<!-- KaTeX\contrib\copy&#45;tex -->
<g id="node12" class="node"><title>KaTeX\contrib\copy&#45;tex</title>
<polygon fill="lemonchiffon" stroke="black" stroke-width="2" points="661.5,-1008 658.5,-1012 637.5,-1012 634.5,-1008 595.5,-1008 595.5,-972 661.5,-972 661.5,-1008"/>
<text text-anchor="start" x="603.5" y="-986.3" font-family="Times New Roman,serif" font-size="14.00">copy&#45;tex</text>
</g>
<!-- KaTeX\contrib&#45;&gt;KaTeX\contrib\copy&#45;tex -->
<g id="edge11" class="edge"><title>KaTeX\contrib&#45;&gt;KaTeX\contrib\copy&#45;tex</title>
<path fill="none" stroke="black" d="M339.629,-915.976C394.592,-930.109 519.436,-962.212 585.187,-979.12"/>
<polygon fill="black" stroke="black" points="584.656,-982.597 595.212,-981.697 586.399,-975.817 584.656,-982.597"/>
</g>
<!-- KaTeX\contrib\mathtex&#45;script&#45;type -->
<g id="node13" class="node"><title>KaTeX\contrib\mathtex&#45;script&#45;type</title>
<polygon fill="lemonchiffon" stroke="black" stroke-width="2" points="691,-954 688,-958 667,-958 664,-954 566,-954 566,-918 691,-918 691,-954"/>
<text text-anchor="start" x="574" y="-932.3" font-family="Times New Roman,serif" font-size="14.00">mathtex&#45;script&#45;type</text>
</g>
<!-- KaTeX\contrib&#45;&gt;KaTeX\contrib\mathtex&#45;script&#45;type -->
<g id="edge12" class="edge"><title>KaTeX\contrib&#45;&gt;KaTeX\contrib\mathtex&#45;script&#45;type</title>
<path fill="none" stroke="black" d="M339.629,-911.325C387.111,-915.395 486.745,-923.935 555.379,-929.818"/>
<polygon fill="black" stroke="black" points="555.431,-933.335 565.693,-930.702 556.028,-926.361 555.431,-933.335"/>
</g>
<!-- KaTeX\contrib\mhchem -->
<g id="node14" class="node"><title>KaTeX\contrib\mhchem</title>
<polygon fill="lemonchiffon" stroke="black" stroke-width="2" points="660.5,-900 657.5,-904 636.5,-904 633.5,-900 596.5,-900 596.5,-864 660.5,-864 660.5,-900"/>
<text text-anchor="start" x="604.5" y="-878.3" font-family="Times New Roman,serif" font-size="14.00">mhchem</text>
</g>
<!-- KaTeX\contrib&#45;&gt;KaTeX\contrib\mhchem -->
<g id="edge13" class="edge"><title>KaTeX\contrib&#45;&gt;KaTeX\contrib\mhchem</title>
<path fill="none" stroke="black" d="M339.629,-906.675C394.875,-901.939 520.725,-891.152 586.199,-885.54"/>
<polygon fill="black" stroke="black" points="586.504,-889.027 596.169,-884.686 585.906,-882.052 586.504,-889.027"/>
</g>
<!-- KaTeX\contrib\render&#45;a11y&#45;string -->
<g id="node15" class="node"><title>KaTeX\contrib\render&#45;a11y&#45;string</title>
<polygon fill="lemonchiffon" stroke="black" stroke-width="2" points="687.5,-846 684.5,-850 663.5,-850 660.5,-846 569.5,-846 569.5,-810 687.5,-810 687.5,-846"/>
<text text-anchor="start" x="577.5" y="-824.3" font-family="Times New Roman,serif" font-size="14.00">render&#45;a11y&#45;string</text>
</g>
<!-- KaTeX\contrib&#45;&gt;KaTeX\contrib\render&#45;a11y&#45;string -->
<g id="edge14" class="edge"><title>KaTeX\contrib&#45;&gt;KaTeX\contrib\render&#45;a11y&#45;string</title>
<path fill="none" stroke="black" d="M339.629,-902.024C388.061,-889.57 490.757,-863.163 559.465,-845.495"/>
<polygon fill="black" stroke="black" points="560.532,-848.834 569.345,-842.954 558.789,-842.055 560.532,-848.834"/>
</g>
<!-- KaTeX\dockers\fonts -->
<g id="node18" class="node"><title>KaTeX\dockers\fonts</title>
<polygon fill="lemonchiffon" stroke="black" stroke-width="2" points="655.5,-792 652.5,-796 631.5,-796 628.5,-792 601.5,-792 601.5,-756 655.5,-756 655.5,-792"/>
<text text-anchor="start" x="609.5" y="-770.3" font-family="Times New Roman,serif" font-size="14.00">fonts</text>
</g>
<!-- KaTeX\dockers&#45;&gt;KaTeX\dockers\fonts -->
<g id="edge17" class="edge"><title>KaTeX\dockers&#45;&gt;KaTeX\dockers\fonts</title>
<path fill="none" stroke="black" d="M342.704,-725.178C400.93,-735.159 528.487,-757.026 591.211,-767.779"/>
<polygon fill="black" stroke="black" points="590.973,-771.289 601.421,-769.529 592.156,-764.39 590.973,-771.289"/>
</g>
<!-- KaTeX\dockers\screenshotter -->
<g id="node19" class="node"><title>KaTeX\dockers\screenshotter</title>
<polygon fill="lemonchiffon" stroke="black" stroke-width="2" points="674,-738 671,-742 650,-742 647,-738 583,-738 583,-702 674,-702 674,-738"/>
<text text-anchor="start" x="591" y="-716.3" font-family="Times New Roman,serif" font-size="14.00">screenshotter</text>
</g>
<!-- KaTeX\dockers&#45;&gt;KaTeX\dockers\screenshotter -->
<g id="edge18" class="edge"><title>KaTeX\dockers&#45;&gt;KaTeX\dockers\screenshotter</title>
<path fill="none" stroke="black" d="M342.704,-720C395.617,-720 505.783,-720 572.521,-720"/>
<polygon fill="black" stroke="black" points="572.844,-723.5 582.844,-720 572.844,-716.5 572.844,-723.5"/>
</g>
<!-- KaTeX\dockers\texcmp -->
<g id="node20" class="node"><title>KaTeX\dockers\texcmp</title>
<polygon fill="lemonchiffon" stroke="black" stroke-width="2" points="657.5,-684 654.5,-688 633.5,-688 630.5,-684 599.5,-684 599.5,-648 657.5,-648 657.5,-684"/>
<text text-anchor="start" x="607.5" y="-662.3" font-family="Times New Roman,serif" font-size="14.00">texcmp</text>
</g>
<!-- KaTeX\dockers&#45;&gt;KaTeX\dockers\texcmp -->
<g id="edge19" class="edge"><title>KaTeX\dockers&#45;&gt;KaTeX\dockers\texcmp</title>
<path fill="none" stroke="black" d="M342.704,-714.822C400.321,-704.945 525.826,-683.43 589.222,-672.562"/>
<polygon fill="black" stroke="black" points="589.945,-675.989 599.21,-670.85 588.762,-669.09 589.945,-675.989"/>
</g>
<!-- KaTeX\flow&#45;typed\npm -->
<g id="node21" class="node"><title>KaTeX\flow&#45;typed\npm</title>
<polygon fill="lemonchiffon" stroke="black" stroke-width="2" points="655.5,-630 652.5,-634 631.5,-634 628.5,-630 601.5,-630 601.5,-594 655.5,-594 655.5,-630"/>
<text text-anchor="start" x="609.5" y="-608.3" font-family="Times New Roman,serif" font-size="14.00">npm</text>
</g>
<!-- KaTeX\flow&#45;typed&#45;&gt;KaTeX\flow&#45;typed\npm -->
<g id="edge20" class="edge"><title>KaTeX\flow&#45;typed&#45;&gt;KaTeX\flow&#45;typed\npm</title>
<path fill="none" stroke="black" d="M350.183,-612C411.189,-612 530.803,-612 591.025,-612"/>
<polygon fill="black" stroke="black" points="591.204,-615.5 601.204,-612 591.204,-608.5 591.204,-615.5"/>
</g>
<!-- KaTeX\src\environments -->
<g id="node22" class="node"><title>KaTeX\src\environments</title>
<polygon fill="lemonchiffon" stroke="black" stroke-width="2" points="674,-576 671,-580 650,-580 647,-576 583,-576 583,-540 674,-540 674,-576"/>
<text text-anchor="start" x="591" y="-554.3" font-family="Times New Roman,serif" font-size="14.00">environments</text>
</g>
<!-- KaTeX\src&#45;&gt;KaTeX\src\environments -->
<g id="edge21" class="edge"><title>KaTeX\src&#45;&gt;KaTeX\src\environments</title>
<path fill="none" stroke="black" d="M338.546,-508.465C389.65,-517.226 504.04,-536.835 572.573,-548.584"/>
<polygon fill="black" stroke="black" points="572.303,-552.089 582.751,-550.329 573.486,-545.189 572.303,-552.089"/>
</g>
<!-- KaTeX\src\fonts -->
<g id="node23" class="node"><title>KaTeX\src\fonts</title>
<polygon fill="lemonchiffon" stroke="black" stroke-width="2" points="655.5,-522 652.5,-526 631.5,-526 628.5,-522 601.5,-522 601.5,-486 655.5,-486 655.5,-522"/>
<text text-anchor="start" x="609.5" y="-500.3" font-family="Times New Roman,serif" font-size="14.00">fonts</text>
</g>
<!-- KaTeX\src&#45;&gt;KaTeX\src\fonts -->
<g id="edge22" class="edge"><title>KaTeX\src&#45;&gt;KaTeX\src\fonts</title>
<path fill="none" stroke="black" d="M338.546,-504C394.677,-504 527.152,-504 591.36,-504"/>
<polygon fill="black" stroke="black" points="591.424,-507.5 601.424,-504 591.424,-500.5 591.424,-507.5"/>
</g>
<!-- KaTeX\src\functions -->
<g id="node24" class="node"><title>KaTeX\src\functions</title>
<polygon fill="lemonchiffon" stroke="black" stroke-width="2" points="662.5,-468 659.5,-472 638.5,-472 635.5,-468 594.5,-468 594.5,-432 662.5,-432 662.5,-468"/>
<text text-anchor="start" x="602.5" y="-446.3" font-family="Times New Roman,serif" font-size="14.00">functions</text>
</g>
<!-- KaTeX\src&#45;&gt;KaTeX\src\functions -->
<g id="edge23" class="edge"><title>KaTeX\src&#45;&gt;KaTeX\src\functions</title>
<path fill="none" stroke="black" d="M338.546,-499.535C392.694,-490.253 517.887,-468.791 584.306,-457.405"/>
<polygon fill="black" stroke="black" points="585.176,-460.807 594.441,-455.667 583.993,-453.907 585.176,-460.807"/>
</g>
<!-- KaTeX\src\metrics -->
<g id="node25" class="node"><title>KaTeX\src\metrics</title>
<polygon fill="lemonchiffon" stroke="black" stroke-width="2" points="657,-414 654,-418 633,-418 630,-414 600,-414 600,-378 657,-378 657,-414"/>
<text text-anchor="start" x="608" y="-392.3" font-family="Times New Roman,serif" font-size="14.00">metrics</text>
</g>
<!-- KaTeX\src&#45;&gt;KaTeX\src\metrics -->
<g id="edge24" class="edge"><title>KaTeX\src&#45;&gt;KaTeX\src\metrics</title>
<path fill="none" stroke="black" d="M338.546,-495.07C394.233,-475.977 525.062,-431.122 589.824,-408.918"/>
<polygon fill="black" stroke="black" points="591.305,-412.11 599.629,-405.556 589.034,-405.488 591.305,-412.11"/>
</g>
<!-- KaTeX\test\screenshotter -->
<g id="node28" class="node"><title>KaTeX\test\screenshotter</title>
<polygon fill="lemonchiffon" stroke="black" stroke-width="2" points="674,-360 671,-364 650,-364 647,-360 583,-360 583,-324 674,-324 674,-360"/>
<text text-anchor="start" x="591" y="-338.3" font-family="Times New Roman,serif" font-size="14.00">screenshotter</text>
</g>
<!-- KaTeX\test&#45;&gt;KaTeX\test\screenshotter -->
<g id="edge27" class="edge"><title>KaTeX\test&#45;&gt;KaTeX\test\screenshotter</title>
<path fill="none" stroke="black" d="M338.546,-366.768C389.65,-362.387 504.04,-352.582 572.573,-346.708"/>
<polygon fill="black" stroke="black" points="573.086,-350.177 582.751,-345.836 572.488,-343.203 573.086,-350.177"/>
</g>
<!-- KaTeX\website\core -->
<g id="node33" class="node"><title>KaTeX\website\core</title>
<polygon fill="lemonchiffon" stroke="black" stroke-width="2" points="655.5,-306 652.5,-310 631.5,-310 628.5,-306 601.5,-306 601.5,-270 655.5,-270 655.5,-306"/>
<text text-anchor="start" x="609.5" y="-284.3" font-family="Times New Roman,serif" font-size="14.00">core</text>
</g>
<!-- KaTeX\website&#45;&gt;KaTeX\website\core -->
<g id="edge32" class="edge"><title>KaTeX\website&#45;&gt;KaTeX\website\core</title>
<path fill="none" stroke="black" d="M341.01,-238.887C398.393,-248.725 527.747,-270.9 591.12,-281.763"/>
<polygon fill="black" stroke="black" points="590.619,-285.229 601.067,-283.469 591.802,-278.329 590.619,-285.229"/>
</g>
<!-- KaTeX\website\lib -->
<g id="node34" class="node"><title>KaTeX\website\lib</title>
<polygon fill="lemonchiffon" stroke="black" stroke-width="2" points="655.5,-252 652.5,-256 631.5,-256 628.5,-252 601.5,-252 601.5,-216 655.5,-216 655.5,-252"/>
<text text-anchor="start" x="609.5" y="-230.3" font-family="Times New Roman,serif" font-size="14.00">lib</text>
</g>
<!-- KaTeX\website&#45;&gt;KaTeX\website\lib -->
<g id="edge33" class="edge"><title>KaTeX\website&#45;&gt;KaTeX\website\lib</title>
<path fill="none" stroke="black" d="M341.01,-234C398.275,-234 527.214,-234 590.727,-234"/>
<polygon fill="black" stroke="black" points="591.067,-237.5 601.067,-234 591.067,-230.5 591.067,-237.5"/>
</g>
<!-- KaTeX\website\pages -->
<g id="node35" class="node"><title>KaTeX\website\pages</title>
<polygon fill="lemonchiffon" stroke="black" stroke-width="2" points="655.5,-198 652.5,-202 631.5,-202 628.5,-198 601.5,-198 601.5,-162 655.5,-162 655.5,-198"/>
<text text-anchor="start" x="609.5" y="-176.3" font-family="Times New Roman,serif" font-size="14.00">pages</text>
</g>
<!-- KaTeX\website&#45;&gt;KaTeX\website\pages -->
<g id="edge34" class="edge"><title>KaTeX\website&#45;&gt;KaTeX\website\pages</title>
<path fill="none" stroke="black" d="M341.01,-229.113C398.393,-219.275 527.747,-197.1 591.12,-186.237"/>
<polygon fill="black" stroke="black" points="591.802,-189.671 601.067,-184.531 590.619,-182.771 591.802,-189.671"/>
</g>
<!-- KaTeX\website\static -->
<g id="node36" class="node"><title>KaTeX\website\static</title>
<polygon fill="lemonchiffon" stroke="black" stroke-width="2" points="655.5,-144 652.5,-148 631.5,-148 628.5,-144 601.5,-144 601.5,-108 655.5,-108 655.5,-144"/>
<text text-anchor="start" x="609.5" y="-122.3" font-family="Times New Roman,serif" font-size="14.00">static</text>
</g>
<!-- KaTeX\website&#45;&gt;KaTeX\website\static -->
<g id="edge35" class="edge"><title>KaTeX\website&#45;&gt;KaTeX\website\static</title>
<path fill="none" stroke="black" d="M341.01,-224.225C398.512,-204.51 528.281,-160.018 591.511,-138.339"/>
<polygon fill="black" stroke="black" points="592.743,-141.617 601.067,-135.063 590.472,-134.995 592.743,-141.617"/>
</g>
<!-- KaTeX\contrib\auto&#45;render\test -->
<g id="node16" class="node"><title>KaTeX\contrib\auto&#45;render\test</title>
<polygon fill="lemonchiffon" stroke="black" stroke-width="2" points="961.5,-1062 958.5,-1066 937.5,-1066 934.5,-1062 907.5,-1062 907.5,-1026 961.5,-1026 961.5,-1062"/>
<text text-anchor="start" x="915.5" y="-1040.3" font-family="Times New Roman,serif" font-size="14.00">test</text>
</g>
<!-- KaTeX\contrib\auto&#45;render&#45;&gt;KaTeX\contrib\auto&#45;render\test -->
<g id="edge15" class="edge"><title>KaTeX\contrib\auto&#45;render&#45;&gt;KaTeX\contrib\auto&#45;render\test</title>
<path fill="none" stroke="black" d="M668.62,-1044C727.95,-1044 839.844,-1044 897.357,-1044"/>
<polygon fill="black" stroke="black" points="897.438,-1047.5 907.438,-1044 897.438,-1040.5 897.438,-1047.5"/>
</g>
<!-- KaTeX\contrib\render&#45;a11y&#45;string\test -->
<g id="node17" class="node"><title>KaTeX\contrib\render&#45;a11y&#45;string\test</title>
<polygon fill="lemonchiffon" stroke="black" stroke-width="2" points="961.5,-846 958.5,-850 937.5,-850 934.5,-846 907.5,-846 907.5,-810 961.5,-810 961.5,-846"/>
<text text-anchor="start" x="915.5" y="-824.3" font-family="Times New Roman,serif" font-size="14.00">test</text>
</g>
<!-- KaTeX\contrib\render&#45;a11y&#45;string&#45;&gt;KaTeX\contrib\render&#45;a11y&#45;string\test -->
<g id="edge16" class="edge"><title>KaTeX\contrib\render&#45;a11y&#45;string&#45;&gt;KaTeX\contrib\render&#45;a11y&#45;string\test</title>
<path fill="none" stroke="black" d="M687.755,-828C749.53,-828 845.198,-828 897.065,-828"/>
<polygon fill="black" stroke="black" points="897.136,-831.5 907.136,-828 897.136,-824.5 897.136,-831.5"/>
</g>
<!-- KaTeX\src\fonts\lib -->
<g id="node26" class="node"><title>KaTeX\src\fonts\lib</title>
<polygon fill="lemonchiffon" stroke="black" stroke-width="2" points="961.5,-522 958.5,-526 937.5,-526 934.5,-522 907.5,-522 907.5,-486 961.5,-486 961.5,-522"/>
<text text-anchor="start" x="915.5" y="-500.3" font-family="Times New Roman,serif" font-size="14.00">lib</text>
</g>
<!-- KaTeX\src\fonts&#45;&gt;KaTeX\src\fonts\lib -->
<g id="edge25" class="edge"><title>KaTeX\src\fonts&#45;&gt;KaTeX\src\fonts\lib</title>
<path fill="none" stroke="black" d="M655.682,-504C710.004,-504 835.061,-504 897.155,-504"/>
<polygon fill="black" stroke="black" points="897.273,-507.5 907.273,-504 897.273,-500.5 897.273,-507.5"/>
</g>
<!-- KaTeX\src\functions\utils -->
<g id="node27" class="node"><title>KaTeX\src\functions\utils</title>
<polygon fill="lemonchiffon" stroke="black" stroke-width="2" points="961.5,-468 958.5,-472 937.5,-472 934.5,-468 907.5,-468 907.5,-432 961.5,-432 961.5,-468"/>
<text text-anchor="start" x="915.5" y="-446.3" font-family="Times New Roman,serif" font-size="14.00">utils</text>
</g>
<!-- KaTeX\src\functions&#45;&gt;KaTeX\src\functions\utils -->
<g id="edge26" class="edge"><title>KaTeX\src\functions&#45;&gt;KaTeX\src\functions\utils</title>
<path fill="none" stroke="black" d="M662.612,-450C720.1,-450 837.908,-450 897.409,-450"/>
<polygon fill="black" stroke="black" points="897.47,-453.5 907.47,-450 897.47,-446.5 897.47,-453.5"/>
</g>
<!-- KaTeX\test\screenshotter\fonts -->
<g id="node29" class="node"><title>KaTeX\test\screenshotter\fonts</title>
<polygon fill="lemonchiffon" stroke="black" stroke-width="2" points="961.5,-387 958.5,-391 937.5,-391 934.5,-387 907.5,-387 907.5,-351 961.5,-351 961.5,-387"/>
<text text-anchor="start" x="915.5" y="-365.3" font-family="Times New Roman,serif" font-size="14.00">fonts</text>
</g>
<!-- KaTeX\test\screenshotter&#45;&gt;KaTeX\test\screenshotter\fonts -->
<g id="edge28" class="edge"><title>KaTeX\test\screenshotter&#45;&gt;KaTeX\test\screenshotter\fonts</title>
<path fill="none" stroke="black" d="M674.03,-345.955C734.454,-351.322 841.269,-360.808 897.139,-365.771"/>
<polygon fill="black" stroke="black" points="897.009,-369.273 907.28,-366.671 897.629,-362.3 897.009,-369.273"/>
</g>
<!-- KaTeX\test\screenshotter\images -->
<g id="node30" class="node"><title>KaTeX\test\screenshotter\images</title>
<polygon fill="lemonchiffon" stroke="black" stroke-width="2" points="962,-333 959,-337 938,-337 935,-333 907,-333 907,-297 962,-297 962,-333"/>
<text text-anchor="start" x="915" y="-311.3" font-family="Times New Roman,serif" font-size="14.00">images</text>
</g>
<!-- KaTeX\test\screenshotter&#45;&gt;KaTeX\test\screenshotter\images -->
<g id="edge29" class="edge"><title>KaTeX\test\screenshotter&#45;&gt;KaTeX\test\screenshotter\images</title>
<path fill="none" stroke="black" d="M674.03,-338.045C734.299,-332.692 840.722,-323.24 896.708,-318.268"/>
<polygon fill="black" stroke="black" points="897.227,-321.735 906.878,-317.364 896.608,-314.763 897.227,-321.735"/>
</g>
<!-- KaTeX\test\screenshotter\fonts\batang -->
<g id="node31" class="node"><title>KaTeX\test\screenshotter\fonts\batang</title>
<polygon fill="lemonchiffon" stroke="black" stroke-width="2" points="1234,-414 1231,-418 1210,-418 1207,-414 1180,-414 1180,-378 1234,-378 1234,-414"/>
<text text-anchor="start" x="1188" y="-392.3" font-family="Times New Roman,serif" font-size="14.00">batang</text>
</g>
<!-- KaTeX\test\screenshotter\fonts&#45;&gt;KaTeX\test\screenshotter\fonts\batang -->
<g id="edge30" class="edge"><title>KaTeX\test\screenshotter\fonts&#45;&gt;KaTeX\test\screenshotter\fonts\batang</title>
<path fill="none" stroke="black" d="M961.929,-371.638C1010.64,-376.5 1114.62,-386.879 1169.82,-392.389"/>
<polygon fill="black" stroke="black" points="1169.56,-395.88 1179.86,-393.391 1170.26,-388.915 1169.56,-395.88"/>
</g>
<!-- KaTeX\test\screenshotter\fonts\mincho -->
<g id="node32" class="node"><title>KaTeX\test\screenshotter\fonts\mincho</title>
<polygon fill="lemonchiffon" stroke="black" stroke-width="2" points="1236,-360 1233,-364 1212,-364 1209,-360 1178,-360 1178,-324 1236,-324 1236,-360"/>
<text text-anchor="start" x="1186" y="-338.3" font-family="Times New Roman,serif" font-size="14.00">mincho</text>
</g>
<!-- KaTeX\test\screenshotter\fonts&#45;&gt;KaTeX\test\screenshotter\fonts\mincho -->
<g id="edge31" class="edge"><title>KaTeX\test\screenshotter\fonts&#45;&gt;KaTeX\test\screenshotter\fonts\mincho</title>
<path fill="none" stroke="black" d="M961.929,-366.362C1010.01,-361.563 1111.96,-351.387 1167.68,-345.825"/>
<polygon fill="black" stroke="black" points="1168.24,-349.286 1177.85,-344.81 1167.55,-342.321 1168.24,-349.286"/>
</g>
<!-- KaTeX\website\pages\en -->
<g id="node37" class="node"><title>KaTeX\website\pages\en</title>
<polygon fill="lemonchiffon" stroke="black" stroke-width="2" points="961.5,-252 958.5,-256 937.5,-256 934.5,-252 907.5,-252 907.5,-216 961.5,-216 961.5,-252"/>
<text text-anchor="start" x="915.5" y="-230.3" font-family="Times New Roman,serif" font-size="14.00">en</text>
</g>
<!-- KaTeX\website\pages&#45;&gt;KaTeX\website\pages\en -->
<g id="edge36" class="edge"><title>KaTeX\website\pages&#45;&gt;KaTeX\website\pages\en</title>
<path fill="none" stroke="black" d="M655.682,-184.651C710.004,-194.3 835.061,-216.514 897.155,-227.544"/>
<polygon fill="black" stroke="black" points="896.815,-231.038 907.273,-229.341 898.039,-224.146 896.815,-231.038"/>
</g>
<!-- KaTeX\website\static\css -->
<g id="node38" class="node"><title>KaTeX\website\static\css</title>
<polygon fill="lemonchiffon" stroke="black" stroke-width="2" points="961.5,-198 958.5,-202 937.5,-202 934.5,-198 907.5,-198 907.5,-162 961.5,-162 961.5,-198"/>
<text text-anchor="start" x="915.5" y="-176.3" font-family="Times New Roman,serif" font-size="14.00">css</text>
</g>
<!-- KaTeX\website\static&#45;&gt;KaTeX\website\static\css -->
<g id="edge37" class="edge"><title>KaTeX\website\static&#45;&gt;KaTeX\website\static\css</title>
<path fill="none" stroke="black" d="M655.682,-130.651C710.004,-140.3 835.061,-162.514 897.155,-173.544"/>
<polygon fill="black" stroke="black" points="896.815,-177.038 907.273,-175.341 898.039,-170.146 896.815,-177.038"/>
</g>
<!-- KaTeX\website\static\img -->
<g id="node39" class="node"><title>KaTeX\website\static\img</title>
<polygon fill="lemonchiffon" stroke="black" stroke-width="2" points="961.5,-144 958.5,-148 937.5,-148 934.5,-144 907.5,-144 907.5,-108 961.5,-108 961.5,-144"/>
<text text-anchor="start" x="915.5" y="-122.3" font-family="Times New Roman,serif" font-size="14.00">img</text>
</g>
<!-- KaTeX\website\static&#45;&gt;KaTeX\website\static\img -->
<g id="edge38" class="edge"><title>KaTeX\website\static&#45;&gt;KaTeX\website\static\img</title>
<path fill="none" stroke="black" d="M655.682,-126C710.004,-126 835.061,-126 897.155,-126"/>
<polygon fill="black" stroke="black" points="897.273,-129.5 907.273,-126 897.273,-122.5 897.273,-129.5"/>
</g>
<!-- KaTeX\website\static\js -->
<g id="node40" class="node"><title>KaTeX\website\static\js</title>
<polygon fill="lemonchiffon" stroke="black" stroke-width="2" points="961.5,-90 958.5,-94 937.5,-94 934.5,-90 907.5,-90 907.5,-54 961.5,-54 961.5,-90"/>
<text text-anchor="start" x="915.5" y="-68.3" font-family="Times New Roman,serif" font-size="14.00">js</text>
</g>
<!-- KaTeX\website\static&#45;&gt;KaTeX\website\static\js -->
<g id="edge39" class="edge"><title>KaTeX\website\static&#45;&gt;KaTeX\website\static\js</title>
<path fill="none" stroke="black" d="M655.682,-121.349C710.004,-111.7 835.061,-89.4859 897.155,-78.4561"/>
<polygon fill="black" stroke="black" points="898.039,-81.8538 907.273,-76.6587 896.815,-74.9617 898.039,-81.8538"/>
</g>
<!-- KaTeX\website\static\static -->
<g id="node41" class="node"><title>KaTeX\website\static\static</title>
<polygon fill="lemonchiffon" stroke="black" stroke-width="2" points="961.5,-36 958.5,-40 937.5,-40 934.5,-36 907.5,-36 907.5,-0 961.5,-0 961.5,-36"/>
<text text-anchor="start" x="915.5" y="-14.3" font-family="Times New Roman,serif" font-size="14.00">static</text>
</g>
<!-- KaTeX\website\static&#45;&gt;KaTeX\website\static\static -->
<g id="edge40" class="edge"><title>KaTeX\website\static&#45;&gt;KaTeX\website\static\static</title>
<path fill="none" stroke="black" d="M655.682,-116.699C710.116,-97.3599 835.578,-52.788 897.539,-30.7757"/>
<polygon fill="black" stroke="black" points="899.022,-33.9632 907.273,-27.3174 896.678,-27.3671 899.022,-33.9632"/>
</g>
</g>
</svg>
